HIERARCHY
ROOT Hips
{
	OFFSET 0.000000 0.000000 0.000000
	CHANNELS 6 Xposition Yposition Zposition Zrotation Yrotation Xrotation 
	JOINT LeftUpLeg_virtual
	{
		OFFSET 0.000000 0.000000 0.000000
		CHANNELS 3 Zrotation Yrotation Xrotation
		JOINT LeftUpLeg
		{
			OFFSET 8.479694 -4.795517 -0.379053
			CHANNELS 3 Zrotation Yrotation Xrotation
			JOINT LeftLeg
			{
				OFFSET 0.485052 -32.551468 0.112863
				CHANNELS 3 Zrotation Yrotation Xrotation
				JOINT LeftFoot
				{
					OFFSET 0.438033 -32.635670 -3.012641
					CHANNELS 3 Zrotation Yrotation Xrotation
					JOINT LeftToeBase
					{
						OFFSET 0.970169 -13.225353 11.864223
						CHANNELS 3 Zrotation Yrotation Xrotation
						End Site
						{
							OFFSET 0.000000 0.000000 0.000000
						}
					}
				}
			}
		}
	}
	JOINT RightUpLeg_virtual
	{
		OFFSET 0.000000 0.000000 0.000000
		CHANNELS 3 Zrotation Yrotation Xrotation
		JOINT RightUpLeg
		{
			OFFSET -8.479694 -4.795517 -0.379053
			CHANNELS 3 Zrotation Yrotation Xrotation
			JOINT RightLeg
			{
				OFFSET -0.484100 -32.551483 0.112903
				CHANNELS 3 Zrotation Yrotation Xrotation
				JOINT RightFoot
				{
					OFFSET -0.438985 -32.635651 -3.012681
					CHANNELS 3 Zrotation Yrotation Xrotation
					JOINT RightToeBase
					{
						OFFSET -0.970169 -13.225354 11.864223
						CHANNELS 3 Zrotation Yrotation Xrotation
						End Site
						{
							OFFSET 0.000000 0.000000 0.000000
						}
					}
				}
			}
		}
	}
	JOINT Spine_virtual
	{
		OFFSET 0.000000 0.000000 0.000000
		CHANNELS 3 Zrotation Yrotation Xrotation
		JOINT Spine
		{
			OFFSET 0.000000 7.722015 1.166203
			CHANNELS 3 Zrotation Yrotation Xrotation
			JOINT Spine1
			{
				OFFSET 0.000000 12.024086 0.248766
				CHANNELS 3 Zrotation Yrotation Xrotation
				JOINT Spine2
				{
					OFFSET -0.000000 11.503036 -0.491240
					CHANNELS 3 Zrotation Yrotation Xrotation
					JOINT Neck_virtual
					{
						OFFSET 0.000000 0.000000 0.000000
						CHANNELS 3 Zrotation Yrotation Xrotation
						JOINT Neck
						{
							OFFSET 0.000000 18.430687 -3.123054
							CHANNELS 3 Zrotation Yrotation Xrotation
							JOINT Head
							{
								OFFSET -0.000000 9.051071 1.034021
								CHANNELS 3 Zrotation Yrotation Xrotation
								End Site
								{
									OFFSET 0.000000 0.000000 0.000000
								}
							}
						}
					}
					JOINT LeftShoulder_virtual
					{
						OFFSET 0.000000 0.000000 0.000000
						CHANNELS 3 Zrotation Yrotation Xrotation
						JOINT LeftShoulder
						{
							OFFSET 6.197824 13.665230 -4.064723
							CHANNELS 3 Zrotation Yrotation Xrotation
							JOINT LeftArm
							{
								OFFSET 7.778132 -0.187073 -1.709282
								CHANNELS 3 Zrotation Yrotation Xrotation
								JOINT LeftForeArm
								{
									OFFSET 21.954697 0.000000 -2.041093
									CHANNELS 3 Zrotation Yrotation Xrotation
									JOINT LeftHand
									{
										OFFSET 22.992908 0.000000 -0.870901
										CHANNELS 3 Zrotation Yrotation Xrotation
										End Site
										{
											OFFSET 0.000000 0.000000 0.000000
										}
									}
								}
							}
						}
					}
					JOINT RightShoulder_virtual
					{
						OFFSET 0.000000 0.000000 0.000000
						CHANNELS 3 Zrotation Yrotation Xrotation
						JOINT RightShoulder
						{
							OFFSET -6.197824 13.665230 -4.064723
							CHANNELS 3 Zrotation Yrotation Xrotation
							JOINT RightArm
							{
								OFFSET -7.778132 -0.187073 -1.709282
								CHANNELS 3 Zrotation Yrotation Xrotation
								JOINT RightForeArm
								{
									OFFSET -21.954697 0.000000 -2.041093
									CHANNELS 3 Zrotation Yrotation Xrotation
									JOINT RightHand
									{
										OFFSET -22.992908 0.000000 -0.870901
										CHANNELS 3 Zrotation Yrotation Xrotation
										End Site
										{
											OFFSET 0.000000 0.000000 0.000000
										}
									}
								}
							}
						}
					}
				}
			}
		}
	}
}
MOTION
Frames: 5
Frame Time: 0.033333
7.922552 80.505966 42.335873 -179.847405 -7.597418 179.802271 -3.035377 4.533989 10.980286 3.665611 12.628468 -24.328514 7.117610 2.228421 32.469825 1.919210 -5.972808 -6.189237 0.000000 0.000000 0.000000 1.444342 4.626046 11.265682 -5.937874 -1.206810 -17.158391 -0.113963 3.958295 31.760124 6.551320 4.588715 -14.379580 0.000000 0.000000 0.000000 4.365370 6.427818 -1.436453 8.133020 -1.319686 -4.133236 0.593562 -5.100604 8.945044 -0.036793 0.011156 0.004053 0.598464 -3.982321 9.285608 3.174924 -6.224532 -5.055337 0.000000 0.000000 0.000000 2.150340 -3.621082 6.131002 -2.503868 -7.134999 6.273064 -62.320524 -26.143949 42.843618 -121.463959 -85.737814 142.383052 0.000000 0.000000 0.000000 -2.077616 -1.958104 5.793236 32.427703 4.904120 9.409372 41.134910 -17.171341 5.691870 -4.806822 54.861582 -12.106094 0.000000 0.000000 0.000000 
6.316613 80.440903 42.106438 -179.957262 -11.815362 179.838895 -2.506139 3.984557 11.268999 2.273413 11.322828 -24.023508 6.820425 2.030470 31.589359 2.268071 -6.845351 -7.429733 0.000000 0.000000 0.000000 1.972928 3.768643 11.482767 -7.624428 -2.848733 -16.187504 0.270340 3.294465 31.863833 6.955227 4.290603 -14.423679 0.000000 0.000000 0.000000 5.119096 6.221044 -1.974108 8.482188 -1.111435 -5.085598 0.461682 -5.244504 8.821962 -0.013741 0.054998 -0.023381 0.509176 -4.126544 9.356068 3.709486 -6.409395 -3.522715 0.000000 0.000000 0.000000 2.093579 -3.777247 6.062273 -2.626659 -6.503743 5.962225 -64.197208 -28.922269 46.201247 -133.790101 -85.035363 154.526883 0.000000 0.000000 0.000000 -2.213893 -2.125204 5.766800 32.179272 4.914808 9.588881 42.508516 -18.876812 4.669918 -4.105101 50.239296 -11.439791 0.000000 0.000000 0.000000 
4.843551 80.392105 41.940029 179.894410 -15.759487 179.939968 -1.891363 3.429066 11.263841 0.965803 9.689959 -23.710713 6.704856 2.517602 31.153698 2.646060 -7.451245 -8.162375 0.000000 0.000000 0.000000 2.179588 2.503268 11.312354 -8.684232 -4.353377 -15.177946 0.130666 2.767260 31.949931 7.161180 3.985395 -14.006841 0.000000 0.000000 0.000000 5.748945 5.973012 -2.627657 8.694845 -0.522426 -5.857765 0.259276 -5.380927 8.816166 0.060152 0.077988 -0.033384 0.213831 -4.414060 9.500321 4.133134 -6.627296 -2.124765 0.000000 0.000000 0.000000 1.863668 -3.898907 6.048897 -2.614363 -5.710792 5.594094 -65.957552 -31.046420 49.348554 -142.111757 -84.417983 162.594648 0.000000 0.000000 0.000000 -2.511309 -2.345351 5.860371 31.855149 5.224578 9.844263 43.924714 -20.009796 3.911114 -3.364173 45.220323 -10.662053 0.000000 0.000000 0.000000 
3.630608 80.359512 41.752007 179.762287 -19.411534 -179.996795 -1.572171 2.878526 11.019174 0.247269 7.880414 -23.259632 6.565726 2.727089 31.128413 2.971201 -7.927982 -8.698926 0.000000 0.000000 0.000000 2.268581 0.595628 10.767332 -9.635435 -4.502249 -14.054772 0.199812 2.451346 32.313591 7.268455 3.799605 -13.573775 0.000000 0.000000 0.000000 6.186278 5.488949 -3.348611 8.803437 -0.188464 -6.439652 -0.043103 -5.381808 8.910054 0.040366 0.262161 -0.044652 -0.097701 -4.363663 9.676823 4.462660 -6.711997 -0.726120 0.000000 0.000000 0.000000 1.615826 -3.751397 6.037957 -2.678109 -4.796624 5.314856 -67.240952 -32.476423 51.768992 -147.825648 -84.091964 168.059905 0.000000 0.000000 0.000000 -2.787480 -2.212733 5.992667 31.584615 5.742991 10.061103 45.396678 -20.733051 3.571214 -3.032340 40.416248 -10.161412 0.000000 0.000000 0.000000 
2.689867 80.313080 41.557903 179.683112 -23.080374 -179.709872 -1.359073 1.912830 10.453266 -0.136854 6.079067 -22.894046 6.456392 2.843416 31.491496 3.294765 -8.228314 -9.037950 0.000000 0.000000 0.000000 2.321525 -0.585272 10.161348 -10.391077 -4.574693 -12.808135 0.359123 1.962715 32.366446 7.251224 3.670761 -13.061254 0.000000 0.000000 0.000000 6.446893 4.871982 -4.321174 8.759734 0.418044 -7.006692 -0.335490 -5.380206 8.996147 0.062825 0.313933 0.056570 -0.448274 -4.348244 9.704187 4.848816 -6.757673 0.444578 0.000000 0.000000 0.000000 1.285508 -3.684393 5.975584 -2.596383 -3.860523 4.790670 -68.249777 -33.322615 53.999476 -152.291895 -83.854806 172.267124 0.000000 0.000000 0.000000 -3.142646 -2.216503 6.175078 31.247453 6.315641 10.200423 46.759229 -21.071542 3.390133 -2.667295 36.005725 -9.534056 0.000000 0.000000 0.000000 
